<?xml version="1.0" encoding="utf-8"?>
<!-- Generator: Adobe Illustrator 25.0.0, SVG Export Plug-In . SVG Version: 6.00 Build 0)  -->
<svg version="1.1" id="レイヤー_1" xmlns="http://www.w3.org/2000/svg" xmlns:xlink="http://www.w3.org/1999/xlink" x="0px"
	 y="0px" viewBox="0 0 262.15 226.08" style="enable-background:new 0 0 262.15 226.08;" xml:space="preserve">
<style type="text/css">
	.st0{fill:#221815;}
	.st1{fill:#CD0012;}
	.st2{fill:#008038;}
	.st3{fill:#0080C5;}
</style>
<g>
	<g>
		<path class="st0" d="M5.96,189.76v30.36H8.7c1.67,0,2.86-0.42,3.56-1.26c0.7-0.84,1.05-2.15,1.05-3.94V194.9
			c0-1.63-0.33-2.9-0.99-3.79c-0.66-0.9-1.87-1.34-3.62-1.34H5.96z M0,225.73v-41.57h8.82c3.42,0,6.02,0.93,7.79,2.8
			c1.77,1.87,2.66,4.52,2.66,7.94v19.44c0,3.89-0.94,6.76-2.83,8.61c-1.89,1.85-4.6,2.77-8.15,2.77H0z"/>
		<path class="st0" d="M47.99,215.92c0,1.44,0.4,2.5,1.2,3.18c0.8,0.68,1.74,1.02,2.83,1.02s2.03-0.34,2.83-1.02
			c0.8-0.68,1.2-1.74,1.2-3.18v-21.95c0-1.44-0.4-2.5-1.2-3.18c-0.8-0.68-1.74-1.02-2.83-1.02s-2.03,0.34-2.83,1.02
			c-0.8,0.68-1.2,1.74-1.2,3.18V215.92z M42.04,193.97c0-1.67,0.29-3.15,0.88-4.44c0.58-1.28,1.36-2.35,2.34-3.21
			c0.93-0.82,1.99-1.44,3.18-1.87c1.19-0.43,2.38-0.64,3.59-0.64c1.21,0,2.4,0.22,3.59,0.64c1.19,0.43,2.27,1.05,3.24,1.87
			c0.93,0.86,1.69,1.93,2.28,3.21c0.58,1.29,0.88,2.76,0.88,4.44v21.95c0,1.75-0.29,3.25-0.88,4.49c-0.58,1.25-1.34,2.28-2.28,3.1
			c-0.97,0.86-2.05,1.5-3.24,1.93c-1.19,0.43-2.38,0.64-3.59,0.64c-1.21,0-2.4-0.21-3.59-0.64c-1.19-0.43-2.25-1.07-3.18-1.93
			c-0.97-0.82-1.75-1.85-2.34-3.1c-0.58-1.24-0.88-2.74-0.88-4.49V193.97z"/>
		<path class="st0" d="M103.69,213.88v2.57c0,1.28-0.24,2.5-0.73,3.65c-0.49,1.15-1.16,2.17-2.01,3.06
			c-0.86,0.9-1.86,1.61-3.01,2.13c-1.15,0.53-2.39,0.79-3.71,0.79c-1.13,0-2.28-0.15-3.45-0.47c-1.17-0.31-2.22-0.85-3.15-1.63
			c-0.93-0.78-1.7-1.78-2.31-3.01c-0.6-1.23-0.9-2.79-0.9-4.7v-22.89c0-1.36,0.23-2.63,0.7-3.8c0.47-1.17,1.13-2.18,1.99-3.04
			c0.85-0.86,1.88-1.53,3.06-2.01c1.19-0.49,2.5-0.73,3.94-0.73c2.8,0,5.08,0.92,6.83,2.74c0.86,0.9,1.53,1.96,2.01,3.18
			c0.49,1.23,0.73,2.56,0.73,4v2.34h-5.96v-1.99c0-1.17-0.33-2.18-0.99-3.04c-0.66-0.85-1.56-1.28-2.69-1.28
			c-1.48,0-2.46,0.46-2.95,1.37c-0.49,0.92-0.73,2.07-0.73,3.47v21.25c0,1.21,0.26,2.22,0.79,3.04c0.53,0.82,1.47,1.23,2.83,1.23
			c0.39,0,0.81-0.07,1.26-0.2c0.45-0.14,0.87-0.36,1.26-0.67c0.35-0.31,0.64-0.74,0.88-1.28c0.23-0.54,0.35-1.23,0.35-2.04v-2.04
			H103.69z"/>
		<polygon class="st0" points="129.96,225.73 129.96,189.76 123.07,189.76 123.07,184.16 142.81,184.16 142.81,189.76 
			135.92,189.76 135.92,225.73 		"/>
		<polygon class="st0" points="168.5,225.73 168.5,208.15 160.32,184.16 166.63,184.16 171.41,200.68 171.53,200.68 176.32,184.16 
			182.63,184.16 174.45,208.15 174.45,225.73 		"/>
		<path class="st0" d="M209.07,189.76v14.13h2.86c1.21,0,2.14-0.18,2.8-0.53c0.66-0.35,1.15-0.84,1.46-1.46
			c0.31-0.58,0.5-1.3,0.55-2.16c0.06-0.85,0.09-1.81,0.09-2.86c0-0.97-0.02-1.9-0.06-2.77c-0.04-0.88-0.21-1.65-0.53-2.31
			c-0.31-0.66-0.78-1.17-1.4-1.52c-0.62-0.35-1.52-0.53-2.68-0.53H209.07z M203.12,225.73v-41.57h8.93c1.63,0,3.07,0.21,4.32,0.64
			c1.25,0.43,2.37,1.19,3.39,2.28c1.01,1.09,1.71,2.37,2.1,3.83c0.39,1.46,0.58,3.44,0.58,5.93c0,1.87-0.11,3.45-0.32,4.73
			c-0.22,1.28-0.67,2.49-1.37,3.62c-0.82,1.36-1.91,2.42-3.27,3.18c-1.36,0.76-3.15,1.14-5.37,1.14h-3.04v16.23H203.12z"/>
		<polygon class="st0" points="244.4,184.16 244.4,225.73 262.15,225.73 262.15,219.77 250.35,219.77 250.35,207.57 260.63,207.57 
			260.63,201.97 250.35,201.97 250.35,189.76 262.15,189.76 262.15,184.16 		"/>
	</g>
	<g>
		<path class="st1" d="M83.3,0H64.61c-4.11,0-7.44,3.33-7.44,7.44v81.88c0,4.11,3.33,7.44,7.44,7.44H83.3
			c4.11,0,7.44-3.33,7.44-7.44V7.44C90.74,3.33,87.41,0,83.3,0"/>
		<path class="st2" d="M140.41,0h-18.68c-4.11,0-7.44,3.33-7.44,7.44v81.88c0,4.11,3.33,7.44,7.44,7.44h18.68
			c4.11,0,7.44-3.33,7.44-7.44V7.44C147.85,3.33,144.52,0,140.41,0"/>
		<path class="st3" d="M197.53,0h-18.68c-4.11,0-7.44,3.33-7.44,7.44v81.88c0,4.11,3.33,7.44,7.44,7.44h18.68
			c4.11,0,7.44-3.33,7.44-7.44V7.44C204.97,3.33,201.64,0,197.53,0"/>
		<path class="st1" d="M83.3,147.04H64.61c-4.11,0-7.44-3.33-7.44-7.44v-18.68c0-4.11,3.33-7.44,7.44-7.44H83.3
			c4.11,0,7.44,3.33,7.44,7.44v18.68C90.74,143.71,87.41,147.04,83.3,147.04"/>
		<path class="st2" d="M140.41,147.04h-18.68c-4.11,0-7.44-3.33-7.44-7.44v-18.68c0-4.11,3.33-7.44,7.44-7.44h18.68
			c4.11,0,7.44,3.33,7.44,7.44v18.68C147.85,143.71,144.52,147.04,140.41,147.04"/>
		<path class="st3" d="M197.53,147.04h-18.68c-4.11,0-7.44-3.33-7.44-7.44v-18.68c0-4.11,3.33-7.44,7.44-7.44h18.68
			c4.11,0,7.44,3.33,7.44,7.44v18.68C204.97,143.71,201.64,147.04,197.53,147.04"/>
	</g>
</g>
</svg>
