<?xml version="1.0" encoding="utf-8"?>
<!-- Generator: Adobe Illustrator 25.0.0, SVG Export Plug-In . SVG Version: 6.00 Build 0)  -->
<svg version="1.1" id="レイヤー_1" xmlns="http://www.w3.org/2000/svg" xmlns:xlink="http://www.w3.org/1999/xlink" x="0px"
	 y="0px" viewBox="0 0 1080 28.48" style="enable-background:new 0 0 1080 28.48;" xml:space="preserve">
<style type="text/css">
	.st0{fill:none;stroke:#040000;stroke-miterlimit:10;}
	.st1{fill:#040000;}
</style>
<line class="st0" x1="0" y1="14.63" x2="457.5" y2="13.85"/>
<line class="st0" x1="598.5" y1="14.48" x2="1080" y2="14.01"/>
<g>
	<g>
		<path class="st1" d="M492.6,8.2h-4.08V7.28c0-0.93-0.22-1.74-0.66-2.42c-0.44-0.68-1.18-1.02-2.22-1.02
			c-0.56,0-1.01,0.11-1.36,0.32c-0.35,0.21-0.63,0.48-0.84,0.8c-0.21,0.35-0.36,0.74-0.44,1.18c-0.08,0.44-0.12,0.9-0.12,1.38
			c0,0.56,0.02,1.03,0.06,1.4c0.04,0.37,0.14,0.71,0.3,1c0.16,0.29,0.39,0.55,0.7,0.76c0.31,0.21,0.73,0.43,1.26,0.64l3.12,1.24
			c0.91,0.35,1.64,0.75,2.2,1.22c0.56,0.47,1,1.01,1.32,1.62c0.29,0.64,0.49,1.37,0.6,2.18s0.16,1.74,0.16,2.78
			c0,1.2-0.12,2.31-0.36,3.34s-0.63,1.9-1.16,2.62c-0.56,0.75-1.29,1.33-2.2,1.76c-0.91,0.43-2.01,0.64-3.32,0.64
			c-0.99,0-1.91-0.17-2.76-0.52c-0.85-0.35-1.59-0.83-2.2-1.44c-0.61-0.61-1.1-1.33-1.46-2.14c-0.36-0.81-0.54-1.7-0.54-2.66v-1.52
			h4.08v1.28c0,0.75,0.22,1.42,0.66,2.02c0.44,0.6,1.18,0.9,2.22,0.9c0.69,0,1.23-0.1,1.62-0.3c0.39-0.2,0.69-0.49,0.9-0.86
			c0.21-0.37,0.34-0.82,0.38-1.34c0.04-0.52,0.06-1.1,0.06-1.74c0-0.75-0.03-1.36-0.08-1.84c-0.05-0.48-0.16-0.87-0.32-1.16
			c-0.19-0.29-0.43-0.53-0.74-0.72c-0.31-0.19-0.71-0.39-1.22-0.6l-2.92-1.2c-1.76-0.72-2.94-1.67-3.54-2.86
			c-0.6-1.19-0.9-2.67-0.9-4.46c0-1.07,0.15-2.08,0.44-3.04c0.29-0.96,0.73-1.79,1.32-2.48c0.56-0.69,1.27-1.25,2.14-1.66
			c0.87-0.41,1.9-0.62,3.1-0.62c1.01,0,1.94,0.19,2.78,0.56c0.84,0.37,1.57,0.87,2.18,1.48c1.23,1.28,1.84,2.75,1.84,4.4V8.2z"/>
		<path class="st1" d="M503.64,28.48V0h4.08v13h0.08l5.96-13h4.08l-5.56,11.4l6.6,17.08h-4.32l-4.64-12.64l-2.2,4.12v8.52H503.64z"
			/>
		<path class="st1" d="M528.8,28.48V0h4.08v28.48H528.8z"/>
		<path class="st1" d="M544.84,28.48V0h4.08v24.4H557v4.08H544.84z"/>
		<path class="st1" d="M567.64,28.48V0h4.08v24.4h8.08v4.08H567.64z"/>
	</g>
</g>
</svg>
