<?xml version="1.0" encoding="utf-8"?>
<!-- Generator: Adobe Illustrator 25.0.0, SVG Export Plug-In . SVG Version: 6.00 Build 0)  -->
<svg version="1.1" id="レイヤー_1" xmlns="http://www.w3.org/2000/svg" xmlns:xlink="http://www.w3.org/1999/xlink" x="0px"
	 y="0px" viewBox="0 0 1080 28.5" style="enable-background:new 0 0 1080 28.5;" xml:space="preserve">
<style type="text/css">
	.st0{fill:none;stroke:#040000;stroke-miterlimit:10;}
</style>
<line class="st0" x1="0" y1="14.5" x2="439.5" y2="14"/>
<line class="st0" x1="632.5" y1="14.2" x2="1080" y2="14.2"/>
<g>
	<g>
		<path d="M474.9,20.4v1.8c0,0.9-0.2,1.7-0.5,2.5c-0.3,0.8-0.8,1.5-1.4,2.1c-0.6,0.6-1.3,1.1-2.1,1.5c-0.8,0.4-1.6,0.5-2.5,0.5
			c-0.8,0-1.6-0.1-2.4-0.3c-0.8-0.2-1.5-0.6-2.2-1.1c-0.6-0.5-1.2-1.2-1.6-2.1s-0.6-1.9-0.6-3.2l0-15.7c0-0.9,0.2-1.8,0.5-2.6
			c0.3-0.8,0.8-1.5,1.3-2.1c0.6-0.6,1.3-1,2.1-1.4s1.7-0.5,2.7-0.5c1.9,0,3.5,0.6,4.7,1.9c0.6,0.6,1,1.3,1.4,2.2
			c0.3,0.8,0.5,1.7,0.5,2.7v1.6h-4.1V6.9c0-0.8-0.2-1.5-0.7-2.1c-0.4-0.6-1.1-0.9-1.8-0.9c-1,0-1.7,0.3-2,0.9
			c-0.3,0.6-0.5,1.4-0.5,2.4l0,14.6c0,0.8,0.2,1.5,0.5,2.1c0.4,0.6,1,0.8,1.9,0.8c0.3,0,0.6,0,0.9-0.1s0.6-0.2,0.9-0.5
			c0.2-0.2,0.4-0.5,0.6-0.9c0.2-0.4,0.2-0.8,0.2-1.4v-1.4L474.9,20.4z"/>
		<path d="M486,6.8c0-1.2,0.2-2.2,0.6-3s0.9-1.6,1.6-2.2c0.6-0.6,1.4-1,2.2-1.3s1.6-0.4,2.5-0.4c0.8,0,1.7,0.2,2.5,0.4
			s1.5,0.7,2.2,1.3c0.6,0.6,1.2,1.3,1.6,2.2c0.4,0.9,0.6,1.9,0.6,3l0,15c0,1.2-0.2,2.2-0.6,3.1s-0.9,1.6-1.6,2.1
			c-0.7,0.6-1.4,1-2.2,1.3c-0.8,0.3-1.6,0.4-2.5,0.4c-0.8,0-1.7-0.1-2.5-0.4s-1.5-0.7-2.2-1.3c-0.7-0.6-1.2-1.3-1.6-2.1
			c-0.4-0.9-0.6-1.9-0.6-3.1L486,6.8z M490.1,21.8c0,1,0.3,1.7,0.8,2.2c0.5,0.5,1.2,0.7,1.9,0.7s1.4-0.2,1.9-0.7
			c0.5-0.5,0.8-1.2,0.8-2.2l0-15.1c0-1-0.3-1.7-0.8-2.2c-0.5-0.5-1.2-0.7-1.9-0.7s-1.4,0.2-1.9,0.7C490.3,5,490,5.8,490,6.8
			L490.1,21.8z"/>
		<path d="M511.1,28.5l0-28.5h3.9l6.2,17.1h0.1l0-17.2h4.1l0,28.5h-3.8l-6.3-17.1h-0.1l0,17.1L511.1,28.5z"/>
		<path d="M539.7,28.5l0-24.6H535V0l13.5,0v3.8h-4.7l0,24.6L539.7,28.5z"/>
		<path d="M556.5,28.5L562.8,0h3.4l6.4,28.5h-4.1l-1.2-6.1l-5.6,0l-1.2,6.1L556.5,28.5z M566.5,18.5l-2-10.3h-0.1l-2,10.3H566.5z"/>
		<path d="M595.5,20.3V22c0,0.9-0.2,1.7-0.5,2.5c-0.3,0.8-0.8,1.5-1.4,2.1c-0.6,0.6-1.3,1.1-2.1,1.5c-0.8,0.4-1.6,0.5-2.5,0.5
			c-0.8,0-1.6-0.1-2.4-0.3c-0.8-0.2-1.5-0.6-2.2-1.1c-0.6-0.5-1.2-1.2-1.6-2.1c-0.4-0.8-0.6-1.9-0.6-3.2l0-15.7
			c0-0.9,0.2-1.8,0.5-2.6s0.8-1.5,1.4-2.1c0.6-0.6,1.3-1,2.1-1.4s1.7-0.5,2.7-0.5c1.9,0,3.5,0.6,4.7,1.9c0.6,0.6,1,1.3,1.4,2.2
			c0.3,0.8,0.5,1.7,0.5,2.7v1.6h-4.1V6.7c0-0.8-0.2-1.5-0.7-2.1c-0.5-0.6-1.1-0.9-1.8-0.9c-1,0-1.7,0.3-2,0.9
			c-0.3,0.6-0.5,1.4-0.5,2.4l0,14.6c0,0.8,0.2,1.5,0.5,2.1s1,0.8,1.9,0.8c0.3,0,0.5,0,0.9-0.1s0.6-0.2,0.9-0.5
			c0.2-0.2,0.4-0.5,0.6-0.9c0.2-0.4,0.2-0.8,0.2-1.4v-1.4L595.5,20.3z"/>
		<path d="M609.5,28.4l0-24.6h-4.7v-3.8l13.5,0v3.8h-4.7l0,24.6L609.5,28.4z"/>
	</g>
</g>
</svg>
