<?xml version="1.0" encoding="utf-8"?>
<!-- Generator: Adobe Illustrator 25.0.0, SVG Export Plug-In . SVG Version: 6.00 Build 0)  -->
<svg version="1.1" id="レイヤー_1" xmlns="http://www.w3.org/2000/svg" xmlns:xlink="http://www.w3.org/1999/xlink" x="0px"
	 y="0px" viewBox="0 0 244.63 196.55" style="enable-background:new 0 0 244.63 196.55;" xml:space="preserve">
<style type="text/css">
	.st0{fill:#818181;}
	.st1{fill-rule:evenodd;clip-rule:evenodd;fill:#FFFFFF;}
</style>
<g>
	<path class="st0" d="M15.01,0C6.81,0,0,6.81,0,15.01v146.44c0,8.21,6.81,15.01,15.01,15.01h164.43c8.21,0,15.01-6.81,15.01-15.01
		V15.01c0-8.21-6.81-15.01-15.01-15.01H15.01z M133.32,11.51c3.35,0,6.07,2.72,6.07,6.07c0,3.35-2.72,6.07-6.07,6.07
		c-1.61,0-3.16-0.64-4.29-1.78c-1.14-1.14-1.78-2.69-1.78-4.3s0.64-3.16,1.78-4.29C130.17,12.15,131.71,11.51,133.32,11.51
		L133.32,11.51z M153.4,11.51c3.35,0,6.07,2.72,6.07,6.07c0,3.35-2.72,6.07-6.07,6.07c-1.61,0-3.16-0.64-4.29-1.78
		c-1.14-1.14-1.78-2.69-1.78-4.3s0.64-3.16,1.78-4.29C150.24,12.15,151.79,11.51,153.4,11.51L153.4,11.51z M173.48,11.51
		c3.35,0,6.07,2.72,6.07,6.07c0,3.35-2.72,6.07-6.07,6.07c-1.61,0-3.16-0.64-4.3-1.78c-1.14-1.14-1.78-2.69-1.78-4.3
		s0.64-3.16,1.78-4.29C170.32,12.15,171.86,11.51,173.48,11.51L173.48,11.51z M12.87,35.5h168.72v125.95c0,1.3-0.84,2.15-2.14,2.15
		H15.01c-1.3,0-2.15-0.85-2.15-2.15V35.5z M36.34,54.96v35.28h40.45V54.96H36.34z M95.96,57.44v7.98h62.83v-7.98H95.96z
		 M95.96,77.93v7.98h62.83v-7.98H95.96z M36.34,109.33v35.28h40.45v-35.28H36.34z M95.96,111.81v7.98h62.83v-7.98H95.96z
		 M95.96,132.31v7.98h62.83v-7.98H95.96z M95.96,132.31"/>
	<g>
		<g>
			<path class="st0" d="M228.58,68.58h-42.02c-8.85,0-16.06,6.74-16.06,15.02v97.94c0,8.28,7.2,15.02,16.06,15.02h42.02
				c8.85,0,16.06-6.74,16.06-15.02V83.59C244.63,75.31,237.43,68.58,228.58,68.58z"/>
			<path class="st1" d="M237.56,178.56c0,0.7-0.57,1.27-1.27,1.27h-57.46c-0.7,0-1.27-0.57-1.27-1.27V84.6
				c0-0.7,0.57-1.27,1.27-1.27h57.46c0.7,0,1.27,0.57,1.27,1.27V178.56z"/>
			<path class="st1" d="M211.8,186.52c0,2.34-1.9,4.23-4.23,4.23c-2.34,0-4.23-1.89-4.23-4.23c0-2.34,1.9-4.23,4.23-4.23
				C209.9,182.28,211.8,184.18,211.8,186.52z"/>
			<rect x="200.79" y="75.72" class="st1" width="13.55" height="1.97"/>
		</g>
		<g>
			<rect x="189.72" y="92.45" class="st0" width="35.7" height="31.13"/>
			<rect x="189.34" y="132.9" class="st0" width="36.46" height="7.04"/>
			<rect x="189.34" y="165.63" class="st0" width="36.46" height="7.04"/>
			<rect x="189.34" y="149.27" class="st0" width="36.46" height="7.04"/>
		</g>
	</g>
</g>
</svg>
