<?xml version="1.0" encoding="utf-8"?>
<!-- Generator: Adobe Illustrator 25.0.0, SVG Export Plug-In . SVG Version: 6.00 Build 0)  -->
<svg version="1.1" id="レイヤー_1" xmlns="http://www.w3.org/2000/svg" xmlns:xlink="http://www.w3.org/1999/xlink" x="0px"
	 y="0px" viewBox="0 0 98.32 28.96" style="enable-background:new 0 0 98.32 28.96;" xml:space="preserve">
<g>
	<g>
		<path d="M22.44,0.24L18.2,28.72h-3.84l-3.12-18.48h-0.08L8.08,28.72H4.24L0,0.24h4.32l2.04,18.08h0.08l3.2-18.08h3.12l3.32,18.52
			h0.08l1.96-18.52H22.44z"/>
		<path d="M32.76,6.96c0-1.15,0.2-2.16,0.6-3.04c0.4-0.88,0.93-1.61,1.6-2.2c0.64-0.56,1.37-0.99,2.18-1.28
			C37.95,0.15,38.77,0,39.6,0c0.83,0,1.65,0.15,2.46,0.44c0.81,0.29,1.55,0.72,2.22,1.28c0.64,0.59,1.16,1.32,1.56,2.2
			c0.4,0.88,0.6,1.89,0.6,3.04V22c0,1.2-0.2,2.23-0.6,3.08c-0.4,0.85-0.92,1.56-1.56,2.12c-0.67,0.59-1.41,1.03-2.22,1.32
			c-0.81,0.29-1.63,0.44-2.46,0.44c-0.83,0-1.65-0.15-2.46-0.44s-1.54-0.73-2.18-1.32c-0.67-0.56-1.2-1.27-1.6-2.12
			c-0.4-0.85-0.6-1.88-0.6-3.08V6.96z M36.84,22c0,0.99,0.27,1.71,0.82,2.18c0.55,0.47,1.19,0.7,1.94,0.7c0.75,0,1.39-0.23,1.94-0.7
			c0.55-0.47,0.82-1.19,0.82-2.18V6.96c0-0.99-0.27-1.71-0.82-2.18c-0.55-0.47-1.19-0.7-1.94-0.7c-0.75,0-1.39,0.23-1.94,0.7
			c-0.55,0.47-0.82,1.19-0.82,2.18V22z"/>
		<path d="M58.04,28.72V0.24h6.56c4.8,0,7.2,2.79,7.2,8.36c0,1.68-0.26,3.11-0.78,4.28c-0.52,1.17-1.43,2.12-2.74,2.84l4.4,13h-4.32
			l-3.8-12.16h-2.44v12.16H58.04z M62.12,4.08v8.88h2.32c0.72,0,1.29-0.1,1.72-0.3c0.43-0.2,0.76-0.49,1-0.86
			c0.21-0.37,0.36-0.83,0.44-1.38c0.08-0.55,0.12-1.18,0.12-1.9c0-0.72-0.04-1.35-0.12-1.9c-0.08-0.55-0.24-1.02-0.48-1.42
			c-0.51-0.75-1.47-1.12-2.88-1.12H62.12z"/>
		<path d="M83.08,28.72V0.24h4.08v13h0.08l5.96-13h4.08l-5.56,11.4l6.6,17.08H94l-4.64-12.64l-2.2,4.12v8.52H83.08z"/>
	</g>
</g>
</svg>
