<?xml version="1.0" encoding="utf-8"?>
<!-- Generator: Adobe Illustrator 25.0.0, SVG Export Plug-In . SVG Version: 6.00 Build 0)  -->
<svg version="1.1" id="レイヤー_1" xmlns="http://www.w3.org/2000/svg" xmlns:xlink="http://www.w3.org/1999/xlink" x="0px"
	 y="0px" viewBox="0 0 179.58 44.47" style="enable-background:new 0 0 179.58 44.47;" xml:space="preserve">
<style type="text/css">
	.st0{fill:#818181;}
</style>
<g>
	<g>
		<path class="st0" d="M55.38,10.4V0h6.09v1.06h-4.84v3.42h4.46v1.08h-4.46V9.3h4.84v1.1H55.38z"/>
		<path class="st0" d="M69.87,4.46c-0.23-0.26-0.64-0.4-1.22-0.4c-0.62,0-1.29,0.17-2,0.51v5.82h-1.23V3.14h0.85l0.26,0.6
			c0.87-0.48,1.72-0.72,2.55-0.72c0.77,0,1.35,0.22,1.76,0.65c0.4,0.44,0.6,1.04,0.6,1.81v4.91h-1.23V5.78
			C70.22,5.17,70.1,4.73,69.87,4.46z"/>
		<path class="st0" d="M78.37,10.55c-1.16,0-2.05-0.45-2.67-1.34c-0.44-0.66-0.66-1.42-0.66-2.31c0-0.89,0.19-1.65,0.58-2.28
			C76,4,76.53,3.55,77.21,3.27c0.32-0.15,0.72-0.23,1.23-0.23c0.59,0,1.16,0.13,1.7,0.38l0.36,0.17l0.13-0.45h0.89v7.6
			c0,0.67-0.08,1.2-0.23,1.61c-0.15,0.4-0.41,0.77-0.78,1.11c-0.3,0.29-0.68,0.51-1.12,0.67c-0.45,0.16-0.95,0.24-1.5,0.24
			c-0.35,0-0.73-0.04-1.14-0.13s-0.77-0.2-1.07-0.34L76,13.02c0.72,0.25,1.29,0.38,1.72,0.38c0.76,0,1.35-0.18,1.78-0.55
			s0.68-0.88,0.76-1.55c0.01-0.14,0.02-0.49,0.02-1.06v-0.19C79.64,10.38,79.01,10.55,78.37,10.55z M80.27,9.15V4.4
			c-0.57-0.25-1.13-0.38-1.68-0.38c-0.76,0-1.33,0.25-1.72,0.74c-0.39,0.49-0.59,1.15-0.59,1.97c0,0.59,0.11,1.12,0.34,1.57
			c0.23,0.45,0.54,0.78,0.93,0.98c0.31,0.18,0.68,0.26,1.1,0.26C79.28,9.54,79.82,9.41,80.27,9.15z"/>
		<path class="st0" d="M85.66,1.5c-0.15-0.16-0.23-0.34-0.23-0.56c0-0.2,0.08-0.38,0.23-0.54c0.15-0.16,0.34-0.24,0.57-0.24
			c0.21,0,0.4,0.08,0.55,0.24C86.93,0.56,87,0.74,87,0.95c0,0.21-0.07,0.4-0.22,0.56s-0.33,0.24-0.56,0.24
			C86,1.74,85.81,1.66,85.66,1.5z M86.83,3.14v7.26H85.6V3.14H86.83z"/>
		<path class="st0" d="M95.33,4.46c-0.23-0.26-0.64-0.4-1.22-0.4c-0.62,0-1.29,0.17-2,0.51v5.82h-1.23V3.14h0.85l0.26,0.6
			c0.87-0.48,1.72-0.72,2.55-0.72c0.77,0,1.35,0.22,1.76,0.65c0.4,0.44,0.6,1.04,0.6,1.81v4.91h-1.23V5.78
			C95.68,5.17,95.56,4.73,95.33,4.46z"/>
		<path class="st0" d="M105.96,3.9c0.52,0.57,0.77,1.38,0.77,2.43v0.66l-0.08,0.15h-4.97c0,0.62,0.23,1.19,0.7,1.72
			c0.44,0.44,1.13,0.66,2.06,0.66c0.62,0,1.2-0.09,1.76-0.28l0.23,0.91c-0.77,0.26-1.54,0.4-2.33,0.4c-1.17,0-2.07-0.32-2.68-0.95
			c-0.62-0.63-0.93-1.53-0.93-2.7c0-1.11,0.27-2.02,0.81-2.74c0.58-0.74,1.39-1.12,2.44-1.12C104.71,3.04,105.44,3.33,105.96,3.9z
			 M105.08,4.61c-0.27-0.4-0.67-0.61-1.2-0.61c-0.67,0-1.18,0.2-1.53,0.61s-0.57,0.92-0.64,1.55h3.78
			C105.49,5.53,105.35,5.02,105.08,4.61z"/>
		<path class="st0" d="M115.49,3.9c0.52,0.57,0.77,1.38,0.77,2.43v0.66l-0.08,0.15h-4.97c0,0.62,0.23,1.19,0.7,1.72
			c0.44,0.44,1.13,0.66,2.06,0.66c0.62,0,1.2-0.09,1.76-0.28l0.23,0.91c-0.77,0.26-1.54,0.4-2.33,0.4c-1.17,0-2.07-0.32-2.68-0.95
			c-0.62-0.63-0.93-1.53-0.93-2.7c0-1.11,0.27-2.02,0.81-2.74c0.58-0.74,1.39-1.12,2.44-1.12C114.23,3.04,114.97,3.33,115.49,3.9z
			 M114.61,4.61c-0.27-0.4-0.67-0.61-1.2-0.61c-0.67,0-1.18,0.2-1.53,0.61s-0.57,0.92-0.64,1.55h3.78
			C115.01,5.53,114.88,5.02,114.61,4.61z"/>
		<path class="st0" d="M123.7,3.09c0.17,0.03,0.34,0.09,0.5,0.16l-0.43,1.1c-0.33-0.15-0.69-0.23-1.08-0.23
			c-0.53,0-1.05,0.18-1.57,0.53v5.75h-1.23V3.14h0.89l0.26,0.62c0.63-0.48,1.29-0.72,1.99-0.72C123.3,3.04,123.53,3.06,123.7,3.09z"
			/>
	</g>
	<g>
		<path d="M5,28.95c4.18,0,6.27,1.5,6.27,4.5c0,2.17-1.13,3.63-3.39,4.39l3.83,6.38H8.63l-3.5-5.94C4.86,38.3,4.46,38.3,3.94,38.3
			c-0.26,0-0.67-0.02-1.22-0.06v5.97H0V28.95H5z M2.72,35.78c0.46,0.06,0.91,0.08,1.33,0.08c1.41,0,2.5-0.15,3.29-0.46
			c0.79-0.3,1.18-0.94,1.18-1.9c0-0.83-0.34-1.39-1.01-1.68c-0.68-0.29-1.61-0.43-2.79-0.43h-2V35.78z"/>
		<path d="M18.38,28.95l3.86,5.91l3.89-5.91h3.05l-5.72,8.36v6.91h-2.72v-6.91l-5.39-8.36H18.38z"/>
		<path d="M40.72,28.75c1.41,0,2.68,0.32,3.82,0.94c1.14,0.63,2.04,1.53,2.71,2.69c0.67,1.17,1,2.52,1,4.05
			c0,1.54-0.33,2.91-0.99,4.12c-0.66,1.21-1.56,2.16-2.72,2.83c-1.16,0.68-2.46,1.01-3.9,1.01c-1.3,0-2.51-0.3-3.65-0.9
			c-1.14-0.6-2.06-1.49-2.76-2.68s-1.05-2.6-1.05-4.25c0-1.54,0.33-2.9,1-4.08c0.67-1.18,1.57-2.11,2.72-2.76
			C38.04,29.08,39.32,28.75,40.72,28.75z M40.61,31.28c-0.81,0-1.57,0.18-2.28,0.54c-0.7,0.36-1.28,0.93-1.72,1.69
			c-0.44,0.77-0.67,1.74-0.67,2.9c0,1.09,0.21,2.05,0.64,2.87c0.42,0.82,1.01,1.46,1.75,1.9c0.74,0.44,1.56,0.67,2.47,0.67
			c0.8,0,1.55-0.19,2.26-0.56s1.29-0.95,1.74-1.75c0.44-0.79,0.67-1.79,0.67-2.97c0-1.2-0.24-2.2-0.72-3
			c-0.48-0.79-1.09-1.38-1.83-1.75S41.41,31.28,40.61,31.28z"/>
		<path d="M59.66,31.36c-0.94,0-1.68,0.17-2.22,0.5c-0.54,0.33-0.81,0.79-0.81,1.36c0,0.48,0.25,0.86,0.74,1.14
			c0.49,0.28,1.26,0.58,2.32,0.92c1.07,0.33,1.96,0.66,2.65,0.97c0.69,0.32,1.29,0.78,1.79,1.39c0.5,0.61,0.75,1.39,0.75,2.33
			c0,0.78-0.21,1.5-0.64,2.18c-0.43,0.68-1.12,1.23-2.07,1.67s-2.17,0.65-3.65,0.65c-0.87,0-1.67-0.09-2.39-0.26
			c-0.72-0.18-1.56-0.45-2.53-0.82l-0.36-0.17l0.92-2.47l0.42,0.17c1.68,0.63,3.07,0.94,4.16,0.94c1,0,1.8-0.17,2.42-0.51
			c0.61-0.34,0.92-0.8,0.92-1.37c0.02-0.56-0.22-0.98-0.72-1.26c-0.5-0.29-1.3-0.6-2.42-0.93c-1.06-0.33-1.93-0.66-2.61-0.97
			s-1.27-0.77-1.75-1.37c-0.48-0.6-0.72-1.37-0.72-2.32c0-0.83,0.23-1.57,0.69-2.22c0.46-0.65,1.13-1.16,2-1.53
			c0.87-0.37,1.88-0.56,3.03-0.56c0.98,0,1.81,0.08,2.5,0.24c0.68,0.16,1.35,0.35,2,0.57l0.3,0.11l-0.89,2.47
			c-0.7-0.28-1.36-0.49-1.96-0.62C60.93,31.43,60.3,31.36,59.66,31.36z"/>
		<path d="M76.54,44.47c-1.81,0-3.18-0.32-4.09-0.97c-0.92-0.65-1.5-1.38-1.75-2.19s-0.38-1.68-0.38-2.61v-9.74h2.69v9.61
			c0,0.44,0.05,0.88,0.14,1.3c0.17,0.67,0.55,1.18,1.14,1.54c0.59,0.36,1.34,0.54,2.25,0.54c0.94,0,1.71-0.18,2.3-0.54
			c0.59-0.36,0.98-0.88,1.17-1.54c0.06-0.39,0.08-0.82,0.08-1.3v-9.61h2.72v9.74c0,0.93-0.12,1.79-0.38,2.61s-0.83,1.55-1.75,2.19
			S78.39,44.47,76.54,44.47z"/>
		<path d="M91.61,44.22h-2.72V28.95h2.72V44.22z M97.91,28.95h3.05l-6.02,7.38l6.47,7.88h-3.22l-6.36-7.88L97.91,28.95z"/>
		<path d="M106.16,28.95h10.02v2.44h-7.3v3.83h6.47v2.47h-6.47v4.05h7.3v2.47h-10.02V28.95z"/>
		<path d="M137.69,28.75c1.41,0,2.68,0.32,3.82,0.94c1.14,0.63,2.04,1.53,2.71,2.69c0.67,1.17,1,2.52,1,4.05
			c0,1.54-0.33,2.91-0.99,4.12c-0.66,1.21-1.56,2.16-2.72,2.83c-1.16,0.68-2.46,1.01-3.9,1.01c-1.3,0-2.51-0.3-3.65-0.9
			c-1.14-0.6-2.06-1.49-2.76-2.68s-1.05-2.6-1.05-4.25c0-1.54,0.33-2.9,1-4.08c0.67-1.18,1.57-2.11,2.72-2.76
			C135.01,29.08,136.29,28.75,137.69,28.75z M137.58,31.28c-0.81,0-1.57,0.18-2.28,0.54c-0.7,0.36-1.28,0.93-1.72,1.69
			c-0.44,0.77-0.67,1.74-0.67,2.9c0,1.09,0.21,2.05,0.64,2.87c0.42,0.82,1.01,1.46,1.75,1.9c0.74,0.44,1.56,0.67,2.47,0.67
			c0.8,0,1.55-0.19,2.26-0.56s1.29-0.95,1.74-1.75c0.44-0.79,0.67-1.79,0.67-2.97c0-1.2-0.24-2.2-0.72-3
			c-0.48-0.79-1.09-1.38-1.83-1.75S138.38,31.28,137.58,31.28z"/>
		<path d="M162.06,28.95v2.44h-5v12.83h-2.72V31.39h-5v-2.44H162.06z"/>
		<path d="M173.84,28.95l5.75,15.27h-2.75l-1.55-4.03h-5.64l-1.53,4.03h-2.67l5.75-15.27H173.84z M172.45,32.03l-1.94,5.72h3.89
			L172.45,32.03z"/>
	</g>
</g>
</svg>
