<?xml version="1.0" encoding="utf-8"?>
<!-- Generator: Adobe Illustrator 25.0.0, SVG Export Plug-In . SVG Version: 6.00 Build 0)  -->
<svg version="1.1" id="レイヤー_1" xmlns="http://www.w3.org/2000/svg" xmlns:xlink="http://www.w3.org/1999/xlink" x="0px"
	 y="0px" viewBox="0 0 101.2 28.96" style="enable-background:new 0 0 101.2 28.96;" xml:space="preserve">
<g>
	<g>
		<path d="M14,8.44H9.92V7.52c0-0.93-0.22-1.74-0.66-2.42C8.82,4.42,8.08,4.08,7.04,4.08c-0.56,0-1.01,0.11-1.36,0.32
			C5.33,4.61,5.05,4.88,4.84,5.2C4.63,5.55,4.48,5.94,4.4,6.38c-0.08,0.44-0.12,0.9-0.12,1.38c0,0.56,0.02,1.03,0.06,1.4
			c0.04,0.37,0.14,0.71,0.3,1c0.16,0.29,0.39,0.55,0.7,0.76c0.31,0.21,0.73,0.43,1.26,0.64l3.12,1.24c0.91,0.35,1.64,0.75,2.2,1.22
			c0.56,0.47,1,1.01,1.32,1.62c0.29,0.64,0.49,1.37,0.6,2.18S14,19.56,14,20.6c0,1.2-0.12,2.31-0.36,3.34s-0.63,1.9-1.16,2.62
			c-0.56,0.75-1.29,1.33-2.2,1.76c-0.91,0.43-2.01,0.64-3.32,0.64c-0.99,0-1.91-0.17-2.76-0.52C3.35,28.09,2.61,27.61,2,27
			c-0.61-0.61-1.1-1.33-1.46-2.14C0.18,24.05,0,23.16,0,22.2v-1.52h4.08v1.28c0,0.75,0.22,1.42,0.66,2.02
			c0.44,0.6,1.18,0.9,2.22,0.9c0.69,0,1.23-0.1,1.62-0.3c0.39-0.2,0.69-0.49,0.9-0.86c0.21-0.37,0.34-0.82,0.38-1.34
			c0.04-0.52,0.06-1.1,0.06-1.74c0-0.75-0.03-1.36-0.08-1.84c-0.05-0.48-0.16-0.87-0.32-1.16c-0.19-0.29-0.43-0.53-0.74-0.72
			c-0.31-0.19-0.71-0.39-1.22-0.6l-2.92-1.2C2.88,14.4,1.7,13.45,1.1,12.26C0.5,11.07,0.2,9.59,0.2,7.8c0-1.07,0.15-2.08,0.44-3.04
			C0.93,3.8,1.37,2.97,1.96,2.28C2.52,1.59,3.23,1.03,4.1,0.62C4.97,0.21,6,0,7.2,0c1.01,0,1.94,0.19,2.78,0.56
			c0.84,0.37,1.57,0.87,2.18,1.48C13.39,3.32,14,4.79,14,6.44V8.44z"/>
		<path d="M25.04,28.72V0.24h4.08v13h0.08l5.96-13h4.08l-5.56,11.4l6.6,17.08h-4.32l-4.64-12.64l-2.2,4.12v8.52H25.04z"/>
		<path d="M50.2,28.72V0.24h4.08v28.48H50.2z"/>
		<path d="M66.24,28.72V0.24h4.08v24.4h8.08v4.08H66.24z"/>
		<path d="M89.04,28.72V0.24h4.08v24.4h8.08v4.08H89.04z"/>
	</g>
</g>
</svg>
