<?xml version="1.0" encoding="utf-8"?>
<!-- Generator: Adobe Illustrator 25.0.0, SVG Export Plug-In . SVG Version: 6.00 Build 0)  -->
<svg version="1.1" id="レイヤー_1" xmlns="http://www.w3.org/2000/svg" xmlns:xlink="http://www.w3.org/1999/xlink" x="0px"
	 y="0px" viewBox="0 0 235.88 44.47" style="enable-background:new 0 0 235.88 44.47;" xml:space="preserve">
<style type="text/css">
	.st0{fill:#818181;}
</style>
<g>
	<g>
		<path d="M0,28.95h10.02v2.44h-7.3v3.83h6.47v2.47H2.72v4.05h7.3v2.47H0V28.95z"/>
		<path d="M20.74,28.95c4.18,0,6.27,1.5,6.27,4.5c0,2.17-1.13,3.63-3.39,4.39l3.83,6.38h-3.08l-3.5-5.94
			c-0.28,0.02-0.68,0.03-1.19,0.03c-0.26,0-0.67-0.02-1.22-0.06v5.97h-2.72V28.95H20.74z M18.46,35.78
			c0.46,0.06,0.91,0.08,1.33,0.08c1.41,0,2.5-0.15,3.29-0.46c0.79-0.3,1.18-0.94,1.18-1.9c0-0.83-0.34-1.39-1.01-1.68
			c-0.68-0.29-1.61-0.43-2.79-0.43h-2V35.78z"/>
		<path d="M35.37,28.95v15.27h-2.72V28.95H35.37z"/>
		<path d="M44.89,28.95l7.38,11.33V28.95h2.75v15.27h-3.3l-7.36-11.35v11.35h-2.72V28.95H44.89z"/>
		<path d="M68.29,28.95l5.75,15.27h-2.75l-1.55-4.03H64.1l-1.53,4.03h-2.67l5.75-15.27H68.29z M66.9,32.03l-1.94,5.72h3.89
			L66.9,32.03z"/>
		<path d="M90.53,44.22h-2.72V28.95h2.72V44.22z M96.83,28.95h3.05l-6.02,7.38l6.47,7.88h-3.22l-6.36-7.88L96.83,28.95z"/>
		<path d="M112.07,28.95l5.75,15.27h-2.75l-1.55-4.03h-5.64l-1.53,4.03h-2.67l5.75-15.27H112.07z M110.68,32.03l-1.94,5.72h3.89
			L110.68,32.03z"/>
		<path d="M124.17,28.95l3.05,11.71l3.69-11.71H134l3,11.71l3.83-11.71h2.91l-5.44,15.27h-2.83l-3.14-11.74l-3.64,11.74h-2.8
			l-4.64-15.27H124.17z"/>
		<path d="M155.51,28.95l5.75,15.27h-2.75l-1.55-4.03h-5.64l-1.53,4.03h-2.67l5.75-15.27H155.51z M154.12,32.03l-1.94,5.72h3.89
			L154.12,32.03z"/>
		<path d="M169.78,28.95l4.14,8.36l4.22-8.36h3.44v15.27h-2.69V32.7l-3.86,7.61h-2.33l-3.83-7.61v11.52h-2.72V28.95H169.78z"/>
		<path d="M193.88,44.47c-1.81,0-3.18-0.32-4.09-0.97c-0.92-0.65-1.5-1.38-1.75-2.19s-0.38-1.68-0.38-2.61v-9.74h2.69v9.61
			c0,0.44,0.05,0.88,0.14,1.3c0.17,0.67,0.55,1.18,1.14,1.54c0.59,0.36,1.34,0.54,2.25,0.54c0.94,0,1.71-0.18,2.3-0.54
			c0.59-0.36,0.98-0.88,1.17-1.54c0.06-0.39,0.08-0.82,0.08-1.3v-9.61h2.72v9.74c0,0.93-0.12,1.79-0.38,2.61s-0.83,1.55-1.75,2.19
			S195.73,44.47,193.88,44.47z"/>
		<path d="M211.23,28.95c4.18,0,6.27,1.5,6.27,4.5c0,2.17-1.13,3.63-3.39,4.39l3.83,6.38h-3.08l-3.5-5.94
			c-0.28,0.02-0.68,0.03-1.19,0.03c-0.26,0-0.67-0.02-1.22-0.06v5.97h-2.72V28.95H211.23z M208.95,35.78
			c0.46,0.06,0.91,0.08,1.33,0.08c1.41,0,2.5-0.15,3.29-0.46c0.79-0.3,1.18-0.94,1.18-1.9c0-0.83-0.34-1.39-1.01-1.68
			c-0.68-0.29-1.61-0.43-2.79-0.43h-2V35.78z"/>
		<path d="M230.13,28.95l5.75,15.27h-2.75l-1.55-4.03h-5.64l-1.53,4.03h-2.67l5.75-15.27H230.13z M228.74,32.03l-1.94,5.72h3.89
			L228.74,32.03z"/>
	</g>
	<g>
		<path class="st0" d="M42.96,10.4V0h6.09v1.06h-4.84v3.42h4.46v1.08h-4.46V9.3h4.84v1.1H42.96z"/>
		<path class="st0" d="M57.45,4.46c-0.23-0.26-0.64-0.4-1.22-0.4c-0.62,0-1.29,0.17-2,0.51v5.82H53V3.14h0.85l0.26,0.6
			c0.87-0.48,1.72-0.72,2.55-0.72c0.77,0,1.35,0.22,1.76,0.65c0.4,0.44,0.6,1.04,0.6,1.81v4.91H57.8V5.78
			C57.8,5.17,57.68,4.73,57.45,4.46z"/>
		<path class="st0" d="M65.94,10.55c-1.16,0-2.05-0.45-2.67-1.34c-0.44-0.66-0.66-1.42-0.66-2.31c0-0.89,0.19-1.65,0.58-2.28
			c0.38-0.62,0.92-1.07,1.6-1.35c0.32-0.15,0.72-0.23,1.23-0.23c0.59,0,1.16,0.13,1.7,0.38l0.36,0.17l0.13-0.45h0.89v7.6
			c0,0.67-0.08,1.2-0.23,1.61c-0.15,0.4-0.41,0.77-0.78,1.11c-0.3,0.29-0.68,0.51-1.12,0.67c-0.45,0.16-0.95,0.24-1.5,0.24
			c-0.35,0-0.73-0.04-1.14-0.13s-0.77-0.2-1.07-0.34l0.32-0.87c0.72,0.25,1.29,0.38,1.72,0.38c0.76,0,1.35-0.18,1.78-0.55
			s0.68-0.88,0.76-1.55c0.01-0.14,0.02-0.49,0.02-1.06v-0.19C67.22,10.38,66.59,10.55,65.94,10.55z M67.85,9.15V4.4
			c-0.57-0.25-1.13-0.38-1.68-0.38c-0.76,0-1.33,0.25-1.72,0.74c-0.39,0.49-0.59,1.15-0.59,1.97c0,0.59,0.11,1.12,0.34,1.57
			c0.23,0.45,0.54,0.78,0.93,0.98c0.31,0.18,0.68,0.26,1.1,0.26C66.86,9.54,67.4,9.41,67.85,9.15z"/>
		<path class="st0" d="M73.24,1.5c-0.15-0.16-0.23-0.34-0.23-0.56c0-0.2,0.08-0.38,0.23-0.54c0.15-0.16,0.34-0.24,0.57-0.24
			c0.21,0,0.4,0.08,0.55,0.24c0.15,0.16,0.23,0.34,0.23,0.54c0,0.21-0.07,0.4-0.22,0.56s-0.33,0.24-0.56,0.24
			C73.58,1.74,73.39,1.66,73.24,1.5z M74.41,3.14v7.26h-1.23V3.14H74.41z"/>
		<path class="st0" d="M82.91,4.46c-0.23-0.26-0.64-0.4-1.22-0.4c-0.62,0-1.29,0.17-2,0.51v5.82h-1.23V3.14h0.85l0.26,0.6
			c0.87-0.48,1.72-0.72,2.55-0.72c0.77,0,1.35,0.22,1.76,0.65c0.4,0.44,0.6,1.04,0.6,1.81v4.91h-1.23V5.78
			C83.26,5.17,83.14,4.73,82.91,4.46z"/>
		<path class="st0" d="M93.54,3.9c0.52,0.57,0.77,1.38,0.77,2.43v0.66l-0.08,0.15h-4.97c0,0.62,0.23,1.19,0.7,1.72
			c0.44,0.44,1.13,0.66,2.06,0.66c0.62,0,1.2-0.09,1.76-0.28l0.23,0.91c-0.77,0.26-1.54,0.4-2.33,0.4c-1.17,0-2.07-0.32-2.68-0.95
			c-0.62-0.63-0.93-1.53-0.93-2.7c0-1.11,0.27-2.02,0.81-2.74c0.58-0.74,1.39-1.12,2.44-1.12C92.28,3.04,93.02,3.33,93.54,3.9z
			 M92.66,4.61c-0.27-0.4-0.67-0.61-1.2-0.61c-0.67,0-1.18,0.2-1.53,0.61s-0.57,0.92-0.64,1.55h3.78
			C93.07,5.53,92.93,5.02,92.66,4.61z"/>
		<path class="st0" d="M103.06,3.9c0.52,0.57,0.77,1.38,0.77,2.43v0.66l-0.08,0.15h-4.97c0,0.62,0.23,1.19,0.7,1.72
			c0.44,0.44,1.13,0.66,2.06,0.66c0.62,0,1.2-0.09,1.76-0.28l0.23,0.91c-0.77,0.26-1.54,0.4-2.33,0.4c-1.17,0-2.07-0.32-2.68-0.95
			c-0.62-0.63-0.93-1.53-0.93-2.7c0-1.11,0.27-2.02,0.81-2.74c0.58-0.74,1.39-1.12,2.44-1.12C101.81,3.04,102.55,3.33,103.06,3.9z
			 M102.19,4.61c-0.27-0.4-0.67-0.61-1.2-0.61c-0.67,0-1.18,0.2-1.53,0.61s-0.57,0.92-0.64,1.55h3.78
			C102.59,5.53,102.46,5.02,102.19,4.61z"/>
		<path class="st0" d="M111.28,3.09c0.17,0.03,0.34,0.09,0.5,0.16l-0.43,1.1c-0.33-0.15-0.69-0.23-1.08-0.23
			c-0.53,0-1.05,0.18-1.57,0.53v5.75h-1.23V3.14h0.89l0.26,0.62c0.63-0.48,1.29-0.72,1.99-0.72C110.88,3.04,111.11,3.06,111.28,3.09
			z"/>
		<path class="st0" d="M120.55,8.07l-0.81,0.81l-1.83-1.83l-1.81,1.83l-0.74-0.76l1.8-1.83l-1.78-1.8l0.79-0.81l1.83,1.8l1.8-1.81
			l0.77,0.74l-1.83,1.83L120.55,8.07z"/>
		<path class="st0" d="M125.56,9.54c-0.58-0.67-0.87-1.57-0.87-2.69c0-1.23,0.35-2.2,1.04-2.89c0.67-0.64,1.5-0.96,2.5-0.96
			c0.67,0,1.23,0.11,1.7,0.34V0.34h1.29V10.4h-0.91l-0.21-0.51c-0.68,0.44-1.36,0.66-2.04,0.66
			C126.97,10.55,126.13,10.21,125.56,9.54z M129.16,9.4c0.23-0.07,0.49-0.18,0.77-0.33v-4.8c-0.47-0.19-1-0.28-1.61-0.28
			c-0.78,0-1.37,0.25-1.77,0.76c-0.4,0.5-0.6,1.18-0.6,2.02c0,0.83,0.2,1.5,0.6,1.99c0.4,0.5,0.98,0.75,1.75,0.75
			C128.64,9.51,128.92,9.47,129.16,9.4z"/>
		<path class="st0" d="M140.34,3.9c0.52,0.57,0.77,1.38,0.77,2.43v0.66l-0.08,0.15h-4.97c0,0.62,0.23,1.19,0.7,1.72
			c0.44,0.44,1.13,0.66,2.06,0.66c0.62,0,1.2-0.09,1.76-0.28l0.23,0.91c-0.77,0.26-1.54,0.4-2.33,0.4c-1.17,0-2.07-0.32-2.68-0.95
			c-0.62-0.63-0.93-1.53-0.93-2.7c0-1.11,0.27-2.02,0.81-2.74c0.58-0.74,1.39-1.12,2.44-1.12C139.08,3.04,139.82,3.33,140.34,3.9z
			 M139.46,4.61c-0.27-0.4-0.67-0.61-1.2-0.61c-0.67,0-1.18,0.2-1.53,0.61s-0.57,0.92-0.64,1.55h3.78
			C139.86,5.53,139.73,5.02,139.46,4.61z"/>
		<path class="st0" d="M148.15,9.27c0.31-0.17,0.46-0.42,0.46-0.75c0-0.26-0.11-0.47-0.34-0.62s-0.71-0.38-1.44-0.68l-0.72-0.28
			c-0.32-0.15-0.57-0.29-0.78-0.41c-0.2-0.12-0.38-0.3-0.55-0.55c-0.16-0.25-0.25-0.56-0.25-0.94c0-0.68,0.28-1.18,0.84-1.51
			c0.56-0.33,1.25-0.49,2.07-0.49c0.69,0,1.39,0.16,2.08,0.47l-0.3,0.91c-0.57-0.24-1.12-0.36-1.64-0.36
			c-0.54,0-0.98,0.08-1.31,0.24c-0.33,0.16-0.5,0.38-0.5,0.67c0,0.29,0.12,0.52,0.35,0.68c0.23,0.16,0.63,0.35,1.2,0.57l0.62,0.25
			c0.69,0.29,1.18,0.59,1.46,0.91c0.28,0.32,0.42,0.73,0.42,1.25c0,0.53-0.25,0.99-0.74,1.37c-0.49,0.38-1.15,0.58-1.96,0.58
			c-0.93,0-1.85-0.18-2.76-0.55l0.34-0.93c0.82,0.29,1.59,0.43,2.33,0.43C147.47,9.53,147.84,9.44,148.15,9.27z"/>
		<path class="st0" d="M153.72,1.5c-0.15-0.16-0.23-0.34-0.23-0.56c0-0.2,0.08-0.38,0.23-0.54c0.15-0.16,0.34-0.24,0.57-0.24
			c0.21,0,0.4,0.08,0.55,0.24c0.15,0.16,0.23,0.34,0.23,0.54c0,0.21-0.07,0.4-0.22,0.56s-0.33,0.24-0.56,0.24
			C154.06,1.74,153.87,1.66,153.72,1.5z M154.89,3.14v7.26h-1.23V3.14H154.89z"/>
		<path class="st0" d="M161.92,10.55c-1.16,0-2.05-0.45-2.67-1.34c-0.44-0.66-0.66-1.42-0.66-2.31c0-0.89,0.19-1.65,0.58-2.28
			c0.38-0.62,0.92-1.07,1.6-1.35c0.32-0.15,0.72-0.23,1.23-0.23c0.59,0,1.16,0.13,1.7,0.38l0.36,0.17l0.13-0.45h0.89v7.6
			c0,0.67-0.08,1.2-0.23,1.61c-0.15,0.4-0.41,0.77-0.78,1.11c-0.3,0.29-0.68,0.51-1.12,0.67c-0.45,0.16-0.95,0.24-1.5,0.24
			c-0.35,0-0.73-0.04-1.14-0.13s-0.77-0.2-1.07-0.34l0.32-0.87c0.72,0.25,1.29,0.38,1.72,0.38c0.76,0,1.35-0.18,1.78-0.55
			s0.68-0.88,0.76-1.55c0.01-0.14,0.02-0.49,0.02-1.06v-0.19C163.2,10.38,162.56,10.55,161.92,10.55z M163.83,9.15V4.4
			c-0.57-0.25-1.13-0.38-1.68-0.38c-0.76,0-1.33,0.25-1.72,0.74c-0.39,0.49-0.59,1.15-0.59,1.97c0,0.59,0.11,1.12,0.34,1.57
			c0.23,0.45,0.54,0.78,0.93,0.98c0.31,0.18,0.68,0.26,1.1,0.26C162.83,9.54,163.38,9.41,163.83,9.15z"/>
		<path class="st0" d="M173.57,4.46c-0.23-0.26-0.64-0.4-1.22-0.4c-0.62,0-1.29,0.17-2,0.51v5.82h-1.23V3.14h0.85l0.26,0.6
			c0.87-0.48,1.72-0.72,2.55-0.72c0.77,0,1.35,0.22,1.76,0.65c0.4,0.44,0.6,1.04,0.6,1.81v4.91h-1.23V5.78
			C173.92,5.17,173.81,4.73,173.57,4.46z"/>
		<path class="st0" d="M184.21,3.9c0.52,0.57,0.77,1.38,0.77,2.43v0.66l-0.08,0.15h-4.97c0,0.62,0.23,1.19,0.7,1.72
			c0.44,0.44,1.13,0.66,2.06,0.66c0.62,0,1.2-0.09,1.76-0.28l0.23,0.91c-0.77,0.26-1.54,0.4-2.33,0.4c-1.17,0-2.07-0.32-2.68-0.95
			c-0.62-0.63-0.93-1.53-0.93-2.7c0-1.11,0.27-2.02,0.81-2.74c0.58-0.74,1.39-1.12,2.44-1.12C182.95,3.04,183.69,3.33,184.21,3.9z
			 M183.33,4.61c-0.27-0.4-0.67-0.61-1.2-0.61c-0.67,0-1.18,0.2-1.53,0.61s-0.57,0.92-0.64,1.55h3.78
			C183.73,5.53,183.6,5.02,183.33,4.61z"/>
		<path class="st0" d="M192.42,3.09c0.17,0.03,0.34,0.09,0.5,0.16l-0.43,1.1c-0.33-0.15-0.69-0.23-1.08-0.23
			c-0.53,0-1.05,0.18-1.57,0.53v5.75h-1.23V3.14h0.89l0.26,0.62c0.63-0.48,1.29-0.72,1.99-0.72C192.02,3.04,192.25,3.06,192.42,3.09
			z"/>
	</g>
</g>
</svg>
