<?xml version="1.0" encoding="utf-8"?>
<!-- Generator: Adobe Illustrator 25.0.0, SVG Export Plug-In . SVG Version: 6.00 Build 0)  -->
<svg version="1.1" id="レイヤー_1" xmlns="http://www.w3.org/2000/svg" xmlns:xlink="http://www.w3.org/1999/xlink" x="0px"
	 y="0px" viewBox="0 0 238.46 44.41" style="enable-background:new 0 0 238.46 44.41;" xml:space="preserve">
<style type="text/css">
	.st0{fill:#818181;}
</style>
<g>
	<g>
		<path d="M8.38,28.95l5.75,15.27h-2.75l-1.55-4.03H4.19l-1.53,4.03H0l5.75-15.27H8.38z M7,32.03l-1.94,5.72h3.89L7,32.03z"/>
		<path d="M21.74,44.22h-2.72V28.95h2.72V44.22z M28.04,28.95h3.05l-6.02,7.38l6.47,7.88h-3.22l-6.36-7.88L28.04,28.95z"/>
		<path d="M39,28.95v15.27h-2.72V28.95H39z"/>
		<path d="M56.49,28.95v2.44h-5v12.83h-2.72V31.39h-5v-2.44H56.49z"/>
		<path d="M68.18,28.75c1.41,0,2.68,0.32,3.82,0.94c1.14,0.63,2.04,1.53,2.71,2.69c0.67,1.17,1,2.52,1,4.05
			c0,1.54-0.33,2.91-0.99,4.12c-0.66,1.21-1.56,2.16-2.72,2.83c-1.16,0.68-2.46,1.01-3.9,1.01c-1.3,0-2.51-0.3-3.65-0.9
			c-1.14-0.6-2.06-1.49-2.76-2.68s-1.05-2.6-1.05-4.25c0-1.54,0.33-2.9,1-4.08c0.67-1.18,1.57-2.11,2.72-2.76
			C65.5,29.08,66.77,28.75,68.18,28.75z M68.07,31.28c-0.81,0-1.57,0.18-2.28,0.54c-0.7,0.36-1.28,0.93-1.72,1.69
			c-0.44,0.77-0.67,1.74-0.67,2.9c0,1.09,0.21,2.05,0.64,2.87c0.42,0.82,1.01,1.46,1.75,1.9c0.74,0.44,1.56,0.67,2.47,0.67
			c0.8,0,1.55-0.19,2.26-0.56s1.29-0.95,1.74-1.75c0.44-0.79,0.67-1.79,0.67-2.97c0-1.2-0.24-2.2-0.72-3
			c-0.48-0.79-1.09-1.38-1.83-1.75S68.86,31.28,68.07,31.28z"/>
		<path d="M103.02,28.95v15.27h-2.69v-6.38h-7.38v6.38h-2.72V28.95h2.72v6.41h7.38v-6.41H103.02z"/>
		<path d="M116.29,28.95l5.75,15.27h-2.75l-1.55-4.03h-5.64l-1.53,4.03h-2.67l5.75-15.27H116.29z M114.9,32.03l-1.94,5.72h3.89
			L114.9,32.03z"/>
		<path d="M130.56,28.95l4.14,8.36l4.22-8.36h3.44v15.27h-2.69V32.7l-3.86,7.61h-2.33l-3.83-7.61v11.52h-2.72V28.95H130.56z"/>
		<path d="M155.62,28.95l5.75,15.27h-2.75l-1.55-4.03h-5.64l-1.53,4.03h-2.67l5.75-15.27H155.62z M154.24,32.03l-1.94,5.72h3.89
			L154.24,32.03z"/>
		<path d="M169.89,28.95l4.14,8.36l4.22-8.36h3.44v15.27H179V32.7l-3.86,7.61h-2.33l-3.83-7.61v11.52h-2.72V28.95H169.89z"/>
		<path d="M194.88,28.75c1.41,0,2.68,0.32,3.82,0.94c1.14,0.63,2.04,1.53,2.71,2.69c0.67,1.17,1,2.52,1,4.05
			c0,1.54-0.33,2.91-0.99,4.12c-0.66,1.21-1.56,2.16-2.72,2.83c-1.16,0.68-2.46,1.01-3.9,1.01c-1.3,0-2.51-0.3-3.65-0.9
			c-1.14-0.6-2.06-1.49-2.76-2.68s-1.05-2.6-1.05-4.25c0-1.54,0.33-2.9,1-4.08c0.67-1.18,1.57-2.11,2.72-2.76
			C192.19,29.08,193.47,28.75,194.88,28.75z M194.77,31.28c-0.81,0-1.57,0.18-2.28,0.54c-0.7,0.36-1.28,0.93-1.72,1.69
			c-0.44,0.77-0.67,1.74-0.67,2.9c0,1.09,0.21,2.05,0.64,2.87c0.42,0.82,1.01,1.46,1.75,1.9c0.74,0.44,1.56,0.67,2.47,0.67
			c0.8,0,1.55-0.19,2.26-0.56s1.29-0.95,1.74-1.75c0.44-0.79,0.67-1.79,0.67-2.97c0-1.2-0.24-2.2-0.72-3
			c-0.48-0.79-1.09-1.38-1.83-1.75S195.56,31.28,194.77,31.28z"/>
		<path d="M219.25,28.95v2.44h-5v12.83h-2.72V31.39h-5v-2.44H219.25z"/>
		<path d="M230.94,28.75c1.41,0,2.68,0.32,3.82,0.94c1.14,0.63,2.04,1.53,2.71,2.69c0.67,1.17,1,2.52,1,4.05
			c0,1.54-0.33,2.91-0.99,4.12c-0.66,1.21-1.56,2.16-2.72,2.83c-1.16,0.68-2.46,1.01-3.9,1.01c-1.3,0-2.51-0.3-3.65-0.9
			c-1.14-0.6-2.06-1.49-2.76-2.68s-1.05-2.6-1.05-4.25c0-1.54,0.33-2.9,1-4.08c0.67-1.18,1.57-2.11,2.72-2.76
			C228.25,29.08,229.53,28.75,230.94,28.75z M230.83,31.28c-0.81,0-1.57,0.18-2.28,0.54c-0.7,0.36-1.28,0.93-1.72,1.69
			c-0.44,0.77-0.67,1.74-0.67,2.9c0,1.09,0.21,2.05,0.64,2.87c0.42,0.82,1.01,1.46,1.75,1.9c0.74,0.44,1.56,0.67,2.47,0.67
			c0.8,0,1.55-0.19,2.26-0.56s1.29-0.95,1.74-1.75c0.44-0.79,0.67-1.79,0.67-2.97c0-1.2-0.24-2.2-0.72-3
			c-0.48-0.79-1.09-1.38-1.83-1.75S231.62,31.28,230.83,31.28z"/>
	</g>
	<g>
		<path class="st0" d="M84.82,10.4V0h6.09v1.06h-4.84v3.42h4.46v1.08h-4.46V9.3h4.84v1.1H84.82z"/>
		<path class="st0" d="M99.31,4.46c-0.23-0.26-0.64-0.4-1.22-0.4c-0.62,0-1.29,0.17-2,0.51v5.82h-1.23V3.14h0.85l0.26,0.6
			c0.87-0.48,1.72-0.72,2.55-0.72c0.77,0,1.35,0.22,1.76,0.65c0.4,0.44,0.6,1.04,0.6,1.81v4.91h-1.23V5.78
			C99.66,5.17,99.54,4.73,99.31,4.46z"/>
		<path class="st0" d="M107.8,10.55c-1.16,0-2.05-0.45-2.67-1.34c-0.44-0.66-0.66-1.42-0.66-2.31c0-0.89,0.19-1.65,0.58-2.28
			c0.38-0.62,0.92-1.07,1.6-1.35c0.32-0.15,0.72-0.23,1.23-0.23c0.59,0,1.16,0.13,1.7,0.38l0.36,0.17l0.13-0.45h0.89v7.6
			c0,0.67-0.08,1.2-0.23,1.61c-0.15,0.4-0.41,0.77-0.78,1.11c-0.3,0.29-0.68,0.51-1.12,0.67c-0.45,0.16-0.95,0.24-1.5,0.24
			c-0.35,0-0.73-0.04-1.14-0.13s-0.77-0.2-1.07-0.34l0.32-0.87c0.72,0.25,1.29,0.38,1.72,0.38c0.76,0,1.35-0.18,1.78-0.55
			s0.68-0.88,0.76-1.55c0.01-0.14,0.02-0.49,0.02-1.06v-0.19C109.08,10.38,108.45,10.55,107.8,10.55z M109.71,9.15V4.4
			c-0.57-0.25-1.13-0.38-1.68-0.38c-0.76,0-1.33,0.25-1.72,0.74c-0.39,0.49-0.59,1.15-0.59,1.97c0,0.59,0.11,1.12,0.34,1.57
			c0.23,0.45,0.54,0.78,0.93,0.98c0.31,0.18,0.68,0.26,1.1,0.26C108.72,9.54,109.26,9.41,109.71,9.15z"/>
		<path class="st0" d="M115.1,1.5c-0.15-0.16-0.23-0.34-0.23-0.56c0-0.2,0.08-0.38,0.23-0.54c0.15-0.16,0.34-0.24,0.57-0.24
			c0.21,0,0.4,0.08,0.55,0.24c0.15,0.16,0.23,0.34,0.23,0.54c0,0.21-0.07,0.4-0.22,0.56s-0.33,0.24-0.56,0.24
			C115.44,1.74,115.25,1.66,115.1,1.5z M116.27,3.14v7.26h-1.23V3.14H116.27z"/>
		<path class="st0" d="M124.77,4.46c-0.23-0.26-0.64-0.4-1.22-0.4c-0.62,0-1.29,0.17-2,0.51v5.82h-1.23V3.14h0.85l0.26,0.6
			c0.87-0.48,1.72-0.72,2.55-0.72c0.77,0,1.35,0.22,1.76,0.65c0.4,0.44,0.6,1.04,0.6,1.81v4.91h-1.23V5.78
			C125.12,5.17,125,4.73,124.77,4.46z"/>
		<path class="st0" d="M135.4,3.9c0.52,0.57,0.77,1.38,0.77,2.43v0.66l-0.08,0.15h-4.97c0,0.62,0.23,1.19,0.7,1.72
			c0.44,0.44,1.13,0.66,2.06,0.66c0.62,0,1.2-0.09,1.76-0.28l0.23,0.91c-0.77,0.26-1.54,0.4-2.33,0.4c-1.17,0-2.07-0.32-2.68-0.95
			c-0.62-0.63-0.93-1.53-0.93-2.7c0-1.11,0.27-2.02,0.81-2.74c0.58-0.74,1.39-1.12,2.44-1.12C134.15,3.04,134.88,3.33,135.4,3.9z
			 M134.52,4.61c-0.27-0.4-0.67-0.61-1.2-0.61c-0.67,0-1.18,0.2-1.53,0.61s-0.57,0.92-0.64,1.55h3.78
			C134.93,5.53,134.79,5.02,134.52,4.61z"/>
		<path class="st0" d="M144.93,3.9c0.52,0.57,0.77,1.38,0.77,2.43v0.66l-0.08,0.15h-4.97c0,0.62,0.23,1.19,0.7,1.72
			c0.44,0.44,1.13,0.66,2.06,0.66c0.62,0,1.2-0.09,1.76-0.28l0.23,0.91c-0.77,0.26-1.54,0.4-2.33,0.4c-1.17,0-2.07-0.32-2.68-0.95
			c-0.62-0.63-0.93-1.53-0.93-2.7c0-1.11,0.27-2.02,0.81-2.74c0.58-0.74,1.39-1.12,2.44-1.12C143.67,3.04,144.41,3.33,144.93,3.9z
			 M144.05,4.61c-0.27-0.4-0.67-0.61-1.2-0.61c-0.67,0-1.18,0.2-1.53,0.61s-0.57,0.92-0.64,1.55h3.78
			C144.45,5.53,144.32,5.02,144.05,4.61z"/>
		<path class="st0" d="M153.14,3.09c0.17,0.03,0.34,0.09,0.5,0.16l-0.43,1.1c-0.33-0.15-0.69-0.23-1.08-0.23
			c-0.53,0-1.05,0.18-1.57,0.53v5.75h-1.23V3.14h0.89l0.26,0.62c0.63-0.48,1.29-0.72,1.99-0.72C152.74,3.04,152.97,3.06,153.14,3.09
			z"/>
	</g>
</g>
</svg>
