<?xml version="1.0" encoding="utf-8"?>
<!-- Generator: Adobe Illustrator 25.0.0, SVG Export Plug-In . SVG Version: 6.00 Build 0)  -->
<svg version="1.1" id="レイヤー_1" xmlns="http://www.w3.org/2000/svg" xmlns:xlink="http://www.w3.org/1999/xlink" x="0px"
	 y="0px" viewBox="0 0 1080 28.48" style="enable-background:new 0 0 1080 28.48;" xml:space="preserve">
<style type="text/css">
	.st0{fill:none;stroke:#040000;stroke-miterlimit:10;}
	.st1{fill:#040000;}
</style>
<g>
	<line class="st0" x1="0" y1="11.33" x2="441.5" y2="14.24"/>
	<line class="st0" x1="630.5" y1="14.24" x2="1080" y2="11.83"/>
	<g>
		<g>
			<path class="st1" d="M463.84,28.48V0h3.92L473,15.08h0.08L478.28,0h3.96v28.48h-4.08V11.16h-0.08l-4.04,12.24H472l-4-12.24h-0.08
				v17.32H463.84z"/>
			<path class="st1" d="M494.08,28.48V0h12.16v3.84h-8.08v8.36h7.04v3.84h-7.04v8.36h8.08v4.08H494.08z"/>
			<path class="st1" d="M516.88,28.48V0h3.92l5.24,15.08h0.08L531.32,0h3.96v28.48h-4.08V11.16h-0.08l-4.04,12.24h-2.04l-4-12.24
				h-0.08v17.32H516.88z"/>
			<path class="st1" d="M547.12,28.48V0h5.96c1.31,0,2.42,0.2,3.34,0.6c0.92,0.4,1.67,0.93,2.26,1.6c0.59,0.67,1.01,1.43,1.26,2.3
				c0.25,0.87,0.38,1.77,0.38,2.7v1.04c0,0.77-0.06,1.43-0.18,1.96c-0.12,0.53-0.3,1-0.54,1.4c-0.45,0.75-1.15,1.39-2.08,1.92
				c0.96,0.45,1.67,1.12,2.12,2c0.45,0.88,0.68,2.08,0.68,3.6v1.6c0,2.51-0.61,4.43-1.82,5.76c-1.21,1.33-3.15,2-5.82,2H547.12z
				 M551.2,3.84v7.84h1.84c1.36,0,2.27-0.34,2.74-1.02c0.47-0.68,0.7-1.67,0.7-2.98c0-1.28-0.26-2.24-0.78-2.88
				c-0.52-0.64-1.46-0.96-2.82-0.96H551.2z M551.2,15.28v9.12h1.76c0.83,0,1.47-0.12,1.94-0.36c0.47-0.24,0.82-0.57,1.06-1
				c0.24-0.43,0.39-0.93,0.44-1.52c0.05-0.59,0.08-1.23,0.08-1.92c0-0.72-0.04-1.35-0.12-1.88s-0.24-0.99-0.48-1.36
				c-0.27-0.37-0.63-0.65-1.08-0.82c-0.45-0.17-1.05-0.26-1.8-0.26H551.2z"/>
			<path class="st1" d="M572.16,28.48V0h12.16v3.84h-8.08v8.36h7.04v3.84h-7.04v8.36h8.08v4.08H572.16z"/>
			<path class="st1" d="M594.96,28.48V0h6.56c4.8,0,7.2,2.79,7.2,8.36c0,1.68-0.26,3.11-0.78,4.28c-0.52,1.17-1.43,2.12-2.74,2.84
				l4.4,13h-4.32l-3.8-12.16h-2.44v12.16H594.96z M599.04,3.84v8.88h2.32c0.72,0,1.29-0.1,1.72-0.3c0.43-0.2,0.76-0.49,1-0.86
				c0.21-0.37,0.36-0.83,0.44-1.38c0.08-0.55,0.12-1.18,0.12-1.9s-0.04-1.35-0.12-1.9c-0.08-0.55-0.24-1.02-0.48-1.42
				c-0.51-0.75-1.47-1.12-2.88-1.12H599.04z"/>
		</g>
	</g>
</g>
</svg>
