<svg xmlns="http://www.w3.org/2000/svg" viewBox="0 0 400 400">
  <defs>
    <style>
      .cls-1 {
        fill: none;
      }

      .cls-2 {
        fill: #1da1f2;
      }
    </style>
  </defs>
  <title>アセット 2</title>
  <g id="レイヤー_2" data-name="レイヤー 2">
    <g id="Logo_FIXED" data-name="Logo — FIXED">
      <g>
        <rect class="cls-1" width="400" height="400"/>
        <path class="cls-2" d="M126.33,361.38c149.87,0,231.83-124.16,231.83-231.83,0-3.53-.07-7-.24-10.53a165.72,165.72,0,0,0,40.65-42.19,162.79,162.79,0,0,1-46.79,12.83,81.78,81.78,0,0,0,35.83-45.08,163,163,0,0,1-51.74,19.78A81.54,81.54,0,0,0,197,138.67a231.31,231.31,0,0,1-168-85.13A81.54,81.54,0,0,0,54.29,162.32a80.85,80.85,0,0,1-36.9-10.2c0,.34,0,.69,0,1A81.51,81.51,0,0,0,82.74,233,81.25,81.25,0,0,1,46,234.44,81.56,81.56,0,0,0,122.06,291,163.45,163.45,0,0,1,20.87,325.91a164.22,164.22,0,0,1-19.44-1.13,230.67,230.67,0,0,0,124.9,36.6"/>
      </g>
    </g>
  </g>
</svg>
